PathFileType  4	(X/Y/Z) C:\Users\antoi\Documents\MyRepositories\mobilecap\ResultsAnalysis
DataRate	CameraRate	NumFrames	NumMarkers	Units	OrigDataRate	OrigDataStartFrame	OrigNumFrames
100.0	100.0	4	51	mm	100.0	1	271
Frame#	Time	r_knee			r_shank_antsup			r_ankle			r_calc			r_5meta			r_toe			L_knee			L_shank_antsup			L_ankle			L_calc			L_5meta			L_toe			r_sh2			r_sh3			r_sh4			L_sh2			L_sh3			r_thigh1			r_thigh2			r_thigh3			r_thigh4			r_thigh5			L_thigh1			L_thigh2			L_thigh3			L_thigh4			r.ASIS			r.PSIS			L.ASIS			L.PSIS			C7			R_Shoulder			L_Shoulder			R_Sternum			L_Sternum			R_humerus			R_elbow_med			R_elbow_lat			R_forearm			R_wrist_radius			R_wrist_ulna			L_humerus			L_elbow_med			L_elbow_lat			L_forearm			L_wrist_radius			L_wrist_ulna			R_HJC			L_HJC			R_HJC_reg			L_HJC_reg			
		X1	Y1	Z1	X2	Y2	Z2	X3	Y3	Z3	X4	Y4	Z4	X5	Y5	Z5	X6	Y6	Z6	X7	Y7	Z7	X8	Y8	Z8	X9	Y9	Z9	X10	Y10	Z10	X11	Y11	Z11	X12	Y12	Z12	X13	Y13	Z13	X14	Y14	Z14	X15	Y15	Z15	X16	Y16	Z16	X17	Y17	Z17	X18	Y18	Z18	X19	Y19	Z19	X20	Y20	Z20	X21	Y21	Z21	X22	Y22	Z22	X23	Y23	Z23	X24	Y24	Z24	X25	Y25	Z25	X26	Y26	Z26	X27	Y27	Z27	X28	Y28	Z28	X29	Y29	Z29	X30	Y30	Z30	X31	Y31	Z31	X32	Y32	Z32	X33	Y33	Z33	X34	Y34	Z34	X35	Y35	Z35	X36	Y36	Z36	X37	Y37	Z37	X38	Y38	Z38	X39	Y39	Z39	X40	Y40	Z40	X41	Y41	Z41	X42	Y42	Z42	X43	Y43	Z43	X44	Y44	Z44	X45	Y45	Z45	X46	Y46	Z46	X47	Y47	Z47	X48	Y48	Z48	X49	Y49	Z49	X50	Y50	Z50	X51	Y51	Z51	

1	0.00000000	-1226.54959	846.57427	-456.09278	-1205.02173	762.54628	-441.97684	-1285.19715	408.42632	-470.88211	-1341.31201	358.90821	-523.92071	-1149.04580	347.91411	-421.78989	-1109.56007	368.92469	-479.95219	-1193.65164	841.14381	-748.99305	-1176.87033	719.98078	-760.86312	-1273.84779	406.77434	-745.80706	-1343.22200	361.08063	-702.97447	-1099.96180	367.66988	-715.02649	-1124.17152	341.41597	-779.31387	-1217.25845	651.65283	-436.11501	-1279.43910	771.61981	-428.85486	-1299.34266	655.64913	-431.14067	-1261.60284	742.56848	-781.10069	-1278.73095	620.68804	-777.12313	-1178.16459	1165.42552	-419.58622	-1160.20825	1055.92784	-432.65585	-1210.46598	1020.30732	-409.56722	-1288.10664	1143.12823	-423.62784	-1263.25972	1029.04039	-424.20772	-1151.25952	1167.40727	-772.55755	-1128.12639	1031.65695	-766.99244	-1265.97739	1148.89418	-793.09059	-1236.45251	1010.47500	-780.83884	-1157.27869	1351.71645	-466.09997	-1340.30492	1416.08242	-555.85120	-1142.54740	1345.79065	-725.55579	-1334.98612	1412.55223	-662.79247	-1270.40682	1921.17409	-618.64793	-1234.83451	1876.03086	-441.74188	-1209.99497	1879.40370	-774.77172	-1137.18631	1827.02103	-573.28675	-1133.61082	1820.24955	-624.83378	-1301.96858	1619.95765	-344.09710	-1339.53542	1528.35397	-418.00586	-1337.05297	1535.38677	-330.35725	-1251.03110	1397.99348	-315.34980	-1194.47022	1296.64885	-327.76663	-1233.31510	1292.15724	-304.19740	-1261.70617	1628.11957	-864.27387	-1328.15272	1544.41657	-807.42188	-1301.32626	1544.04477	-871.87564	-1232.68450	1382.88565	-876.17753	-1186.28461	1296.13661	-859.88869	-1223.05860	1283.74792	-871.84125	-1252.24579	1285.32903	-477.81762	-1236.37962	1279.60855	-707.56740	-1238.83308	1287.61225	-504.98578	-1230.31550	1281.95899	-676.24215	
2	0.01000000	-1224.36280	844.63874	-456.79206	-1204.08486	762.32362	-441.93053	-1285.13393	408.43536	-470.86625	-1341.34805	358.87933	-523.92207	-1149.09113	347.92272	-421.81663	-1109.60037	368.95533	-479.97698	-1193.00437	840.98430	-749.13835	-1176.12926	719.73675	-760.87494	-1273.88826	406.69627	-745.73229	-1343.26424	361.01890	-702.97242	-1100.04553	367.83771	-715.04804	-1124.27245	341.56792	-779.24918	-1216.49136	651.52544	-436.34932	-1277.63055	770.26253	-428.99964	-1298.85344	655.58766	-431.26750	-1260.88094	742.36590	-780.93492	-1278.24961	620.59472	-777.22547	-1178.49848	1165.09227	-419.60444	-1160.36441	1056.02663	-432.25060	-1209.92753	1020.37206	-409.45197	-1288.08360	1142.98160	-423.61169	-1262.93690	1028.85933	-424.21612	-1151.29756	1167.33607	-772.58464	-1127.91699	1031.60163	-767.06823	-1265.97175	1148.51755	-792.86316	-1236.07878	1010.30807	-781.27487	-1157.68021	1351.44417	-466.08093	-1340.71708	1416.07393	-555.62284	-1142.80890	1345.52639	-725.52611	-1335.23922	1412.37903	-663.00348	-1269.71061	1921.19305	-619.25738	-1234.01574	1876.27356	-441.88613	-1208.90303	1879.44304	-774.99672	-1136.46911	1826.70220	-573.29122	-1132.81373	1819.88756	-625.02947	-1302.20713	1620.73377	-344.24734	-1339.36130	1529.55197	-418.11339	-1337.78560	1536.01160	-330.40100	-1251.11576	1399.01676	-315.55416	-1194.31078	1298.24651	-327.84461	-1232.98815	1293.16506	-304.82131	-1261.51964	1628.88306	-864.77198	-1328.53047	1545.12258	-808.46367	-1301.62423	1545.04870	-872.74833	-1232.08873	1383.87946	-876.94017	-1185.45210	1297.34014	-860.66357	-1221.94854	1284.88180	-873.02548	-1252.70471	1285.16150	-477.80053	-1236.75757	1279.41872	-707.54414	-1239.39441	1287.60972	-505.00110	-1230.65966	1281.71809	-676.23639	
3	0.02000000	-1222.82118	843.95867	-456.92800	-1203.04070	762.04446	-441.93794	-1285.10737	408.42400	-470.85381	-1341.43658	358.85995	-523.95919	-1149.15882	347.93119	-421.85384	-1109.66644	369.01649	-480.02122	-1192.24523	840.62338	-748.90772	-1175.28974	719.35974	-760.83287	-1273.97796	406.91658	-745.97834	-1343.40117	360.93403	-702.95437	-1100.15699	368.03172	-715.00041	-1124.38460	341.77941	-779.18346	-1215.56004	651.19572	-436.40299	-1276.32370	769.84276	-429.00099	-1298.10033	655.53969	-431.21540	-1259.95314	742.28221	-781.07868	-1277.64874	620.46268	-777.15284	-1178.03771	1165.24668	-420.05877	-1160.06906	1056.11770	-432.35851	-1209.33250	1020.37554	-409.40641	-1288.08099	1142.73870	-423.64390	-1262.47970	1028.57196	-424.19778	-1151.24851	1167.25550	-772.62467	-1127.64440	1031.53549	-767.14102	-1265.88147	1148.05223	-792.56108	-1235.61436	1010.13294	-781.89637	-1158.14423	1351.13603	-466.10843	-1341.13434	1415.94303	-555.55218	-1143.07339	1345.22408	-725.58881	-1335.50481	1412.15885	-663.16318	-1268.45752	1920.99860	-619.35132	-1233.25588	1876.59714	-442.06566	-1207.61935	1879.56516	-775.03420	-1135.65113	1826.28341	-573.24586	-1131.94046	1819.48463	-625.20383	-1302.59650	1621.66407	-344.35985	-1339.76510	1530.70322	-418.24092	-1338.65226	1536.87440	-330.49807	-1251.39418	1400.19288	-315.77000	-1194.24237	1299.83766	-327.96429	-1232.80574	1294.34323	-305.20838	-1261.45339	1629.79161	-865.24175	-1329.16712	1546.09694	-809.68034	-1302.05316	1546.24896	-873.96257	-1231.66160	1385.18131	-877.81180	-1184.82309	1298.93797	-861.25769	-1220.93195	1286.32718	-874.39712	-1253.17619	1284.91654	-477.85708	-1237.12717	1279.18214	-707.59382	-1239.95154	1287.44762	-505.10693	-1230.99276	1281.42536	-676.35709	
4	0.03000000	-1221.84137	844.39029	-456.71476	-1201.82311	761.73186	-441.87586	-1285.10966	408.39588	-470.85528	-1341.54914	358.85752	-524.01176	-1149.22076	347.99108	-421.85188	-1109.73827	369.07904	-480.06383	-1191.36953	840.24934	-748.48308	-1174.41681	718.91731	-760.62151	-1274.09744	407.27312	-746.33488	-1343.56849	360.84375	-702.91358	-1100.28786	368.22571	-714.92680	-1124.48007	342.01846	-779.15413	-1214.53938	650.66788	-436.41175	-1275.21427	769.89211	-429.00675	-1297.13479	655.52104	-431.04888	-1258.93401	742.24024	-781.35625	-1277.01015	620.36646	-777.03116	-1176.94347	1165.78113	-420.87918	-1159.46326	1056.13305	-432.81387	-1208.63069	1020.30101	-409.52200	-1287.96729	1142.30568	-423.80886	-1261.84823	1028.21813	-424.25146	-1151.14415	1167.17746	-772.63596	-1127.25954	1031.44470	-767.13591	-1265.74418	1147.59595	-792.40668	-1235.09581	1009.73293	-782.00777	-1158.67006	1350.78443	-466.06558	-1341.45221	1415.61575	-555.78555	-1143.37965	1344.88284	-725.77003	-1335.77864	1411.86570	-663.21624	-1266.93671	1920.75166	-619.21437	-1232.47790	1877.03366	-442.22730	-1206.08755	1879.73539	-774.98987	-1134.71266	1825.79213	-573.09037	-1130.98772	1819.05679	-625.32318	-1303.19020	1622.68966	-344.49705	-1340.92456	1531.70437	-418.31758	-1339.65797	1537.94523	-330.58357	-1251.90912	1401.53833	-315.96855	-1194.41151	1301.42144	-328.14876	-1232.84342	1295.72069	-305.31759	-1261.61349	1630.90754	-865.95679	-1330.15355	1547.36737	-811.15019	-1302.66307	1547.73884	-875.61062	-1231.38836	1386.83742	-878.72737	-1184.46799	1300.90578	-861.68626	-1220.04154	1288.15578	-876.07337	-1253.64430	1284.57071	-477.98465	-1237.45196	1278.86856	-707.71213	-1240.43837	1287.03113	-505.15787	-1231.38632	1281.04806	-676.56087	
